<svg width="136" height="43" viewBox="0 0 136 43" fill="none" xmlns="http://www.w3.org/2000/svg">
<path d="M28.6646 33.9623C28.6646 35.326 29.3935 36.3093 31.1185 37.2719C33.407 38.5489 41.8239 41.2181 44.8638 42.1842C46.6506 42.752 48.0262 41.1181 45.9449 38.747C44.2104 36.7713 36.5632 28.3359 32.6463 24.1477C30.694 22.0602 28.6646 20.3347 28.6646 16.7724V33.9623Z" fill="#1B71FF"/>
<path d="M51.2898 0.839504C45.9697 3.49075 36.5696 8.91989 32.512 11.1961C29.655 12.7989 28.6646 14.9702 28.6646 16.7724V33.9624C29.0751 30.6912 31.5806 28.3857 33.6069 26.0571C38.8717 20.0063 50.6791 6.83228 53.1011 4.10024C55.4451 1.45613 55.4697 -8.39233e-05 53.9895 5.34058e-05C53.3492 0.00012207 52.4271 0.272709 51.2898 0.839504Z" fill="url(#paint0_linear_103_108)"/>
<path d="M1.89888 4.10024C4.32093 6.83228 16.1281 20.0063 21.393 26.0571C23.4193 28.3857 25.9248 30.6912 26.3353 33.9624V16.7724C26.3353 14.9702 25.3451 12.7989 22.4879 11.1961C18.4303 8.91989 9.03019 3.49075 3.71013 0.839504C2.57283 0.272709 1.6508 0.00012207 1.01055 5.34058e-05C-0.469689 5.34058e-05 -0.445181 1.45613 1.89888 4.10024Z" fill="url(#paint1_linear_103_108)"/>
<path d="M22.3538 24.1477C18.4369 28.3359 10.7896 36.7713 9.05528 38.747C6.97385 41.1181 8.34948 42.752 10.1363 42.1842C13.1763 41.2181 21.5932 38.5489 23.8815 37.2719C25.6066 36.3093 26.3355 35.326 26.3355 33.9623V16.7724C26.3355 20.3347 24.306 22.0602 22.3538 24.1477Z" fill="#1B71FF"/>
<path d="M84.3436 15.9769C84.2129 15.8463 83.9702 15.6689 83.6156 15.4449C83.2796 15.2209 82.8596 15.0063 82.3556 14.8009C81.8702 14.5956 81.3382 14.4183 80.7596 14.2689C80.1809 14.1009 79.5929 14.0169 78.9956 14.0169C77.9502 14.0169 77.1569 14.2129 76.6156 14.6049C76.0929 14.9969 75.8316 15.5476 75.8316 16.2569C75.8316 16.7983 75.9996 17.2276 76.3356 17.5449C76.6716 17.8623 77.1756 18.1329 77.8476 18.3569C78.5196 18.5809 79.3596 18.8236 80.3676 19.0849C81.6742 19.4023 82.8036 19.7943 83.7556 20.2609C84.7262 20.7089 85.4636 21.3063 85.9676 22.0529C86.4902 22.7809 86.7516 23.7516 86.7516 24.9649C86.7516 26.0289 86.5556 26.9436 86.1636 27.7089C85.7716 28.4556 85.2302 29.0623 84.5396 29.5289C83.8489 29.9956 83.0649 30.3409 82.1876 30.5649C81.3102 30.7703 80.3769 30.8729 79.3876 30.8729C78.3982 30.8729 77.4089 30.7703 76.4196 30.5649C75.4302 30.3596 74.4782 30.0703 73.5636 29.6969C72.6489 29.3049 71.8089 28.8383 71.0436 28.2969L72.7516 24.9649C72.9196 25.1329 73.2182 25.3569 73.6476 25.6369C74.0769 25.8983 74.5996 26.1689 75.2156 26.4489C75.8316 26.7103 76.5036 26.9343 77.2316 27.1209C77.9596 27.3076 78.6969 27.4009 79.4436 27.4009C80.4889 27.4009 81.2822 27.2236 81.8236 26.8689C82.3649 26.5143 82.6356 26.0103 82.6356 25.3569C82.6356 24.7596 82.4209 24.2929 81.9916 23.9569C81.5622 23.6209 80.9649 23.3316 80.1996 23.0889C79.4342 22.8276 78.5289 22.5476 77.4836 22.2489C76.2329 21.8943 75.1876 21.5023 74.3476 21.0729C73.5076 20.6249 72.8822 20.0649 72.4716 19.3929C72.0609 18.7209 71.8556 17.8809 71.8556 16.8729C71.8556 15.5103 72.1729 14.3716 72.8076 13.4569C73.4609 12.5236 74.3382 11.8236 75.4396 11.3569C76.5409 10.8716 77.7636 10.6289 79.1076 10.6289C80.0409 10.6289 80.9182 10.7316 81.7396 10.9369C82.5796 11.1423 83.3636 11.4129 84.0916 11.7489C84.8196 12.0849 85.4729 12.4489 86.0516 12.8409L84.3436 15.9769ZM88.8048 26.3089C88.8048 25.3569 89.0661 24.5263 89.5888 23.8169C90.1301 23.0889 90.8768 22.5289 91.8288 22.1369C92.7808 21.7449 93.8728 21.5489 95.1048 21.5489C95.7208 21.5489 96.3461 21.5956 96.9808 21.6889C97.6154 21.7823 98.1661 21.9316 98.6328 22.1369V21.3529C98.6328 20.4196 98.3528 19.7009 97.7928 19.1969C97.2514 18.6929 96.4394 18.4409 95.3568 18.4409C94.5541 18.4409 93.7888 18.5809 93.0608 18.8609C92.3328 19.1409 91.5674 19.5516 90.7648 20.0929L89.5608 17.6289C90.5314 16.9943 91.5208 16.5183 92.5288 16.2009C93.5554 15.8836 94.6288 15.7249 95.7488 15.7249C97.8394 15.7249 99.4634 16.2476 100.621 17.2929C101.797 18.3383 102.385 19.8316 102.385 21.7729V26.4489C102.385 26.8409 102.45 27.1209 102.581 27.2889C102.73 27.4569 102.963 27.5596 103.281 27.5969V30.6489C102.945 30.7049 102.637 30.7516 102.357 30.7889C102.095 30.8263 101.871 30.8449 101.685 30.8449C100.938 30.8449 100.369 30.6769 99.9768 30.3409C99.6034 30.0049 99.3701 29.5943 99.2768 29.1089L99.1928 28.3529C98.5581 29.1743 97.7648 29.8089 96.8128 30.2569C95.8608 30.7049 94.8901 30.9289 93.9008 30.9289C92.9301 30.9289 92.0528 30.7329 91.2688 30.3409C90.5034 29.9303 89.8968 29.3796 89.4488 28.6889C89.0194 27.9796 88.8048 27.1863 88.8048 26.3089ZM97.9328 27.0649C98.1381 26.8409 98.3061 26.6169 98.4368 26.3929C98.5674 26.1689 98.6328 25.9636 98.6328 25.7769V24.2929C98.1848 24.1063 97.6994 23.9663 97.1768 23.8729C96.6541 23.7609 96.1594 23.7049 95.6928 23.7049C94.7221 23.7049 93.9194 23.9196 93.2848 24.3489C92.6688 24.7596 92.3608 25.3103 92.3608 26.0009C92.3608 26.3743 92.4634 26.7289 92.6688 27.0649C92.8741 27.4009 93.1728 27.6716 93.5648 27.8769C93.9568 28.0823 94.4234 28.1849 94.9648 28.1849C95.5248 28.1849 96.0754 28.0823 96.6168 27.8769C97.1581 27.6529 97.5968 27.3823 97.9328 27.0649ZM109.879 30.6489L104.475 15.9769H108.367L112.063 27.2329L115.787 15.9769H119.343L113.967 30.6489H109.879ZM122.194 33.5049C122.53 33.5796 122.838 33.6449 123.118 33.7009C123.417 33.7569 123.669 33.7849 123.874 33.7849C124.229 33.7849 124.518 33.6916 124.742 33.5049C124.985 33.3369 125.218 33.0196 125.442 32.5529C125.666 32.1049 125.899 31.4703 126.142 30.6489L120.346 15.9769H124.238L128.186 26.8129L131.658 15.9769H135.242L129.082 33.5609C128.858 34.2143 128.513 34.8023 128.046 35.3249C127.598 35.8663 127.029 36.2863 126.338 36.5849C125.666 36.9023 124.91 37.0609 124.07 37.0609C123.771 37.0609 123.473 37.0329 123.174 36.9769C122.875 36.9396 122.549 36.8649 122.194 36.7529V33.5049Z" fill="#1B71FF"/>
<defs>
<linearGradient id="paint0_linear_103_108" x1="30.3159" y1="26.6213" x2="44.043" y2="-6.47334" gradientUnits="userSpaceOnUse">
<stop stop-color="#0050BF"/>
<stop offset="0.113734" stop-color="#0050BF"/>
<stop offset="1" stop-color="#41E0F2"/>
</linearGradient>
<linearGradient id="paint1_linear_103_108" x1="24.6841" y1="26.6213" x2="10.957" y2="-6.47334" gradientUnits="userSpaceOnUse">
<stop stop-color="#0050BF"/>
<stop offset="0.113734" stop-color="#0050BF"/>
<stop offset="1" stop-color="#41E0F2"/>
</linearGradient>
</defs>
</svg>
